<svg width="19" height="19" viewBox="0 0 19 19" fill="none" xmlns="http://www.w3.org/2000/svg">
<path fill-rule="evenodd" clip-rule="evenodd" d="M15.1204 2.02553C14.1454 2.19897 12.831 2.63535 10.9862 3.25026L6.81016 4.64228C5.32681 5.13674 4.2524 5.49541 3.49354 5.81817C2.70015 6.15561 2.41791 6.39083 2.32625 6.5485C2.04391 7.03416 2.04391 7.63397 2.32625 8.11962C2.41791 8.27729 2.70015 8.51251 3.49353 8.84995C4.2524 9.17272 5.32681 9.53139 6.81016 10.0258C6.83358 10.0336 6.85671 10.0413 6.87955 10.0489C7.2847 10.1837 7.59966 10.2885 7.87061 10.4699C8.13165 10.6446 8.35589 10.8688 8.53064 11.1299C8.71202 11.4008 8.81679 11.7158 8.95155 12.1209C8.95915 12.1438 8.96684 12.1669 8.97465 12.1903C9.4691 13.6737 9.82777 14.7481 10.1505 15.507C10.488 16.3003 10.7232 16.5826 10.8809 16.6742C11.3665 16.9566 11.9663 16.9566 12.452 16.6742C12.6097 16.5826 12.8449 16.3003 13.1823 15.507C13.5051 14.7481 13.8638 13.6737 14.3582 12.1903L15.7502 8.01427C16.3651 6.16953 16.8015 4.85506 16.975 3.88008C17.1492 2.90046 17.0161 2.48433 16.7661 2.23439C16.5162 1.98444 16.1 1.85126 15.1204 2.02553ZM14.8961 0.764812C15.9813 0.571771 16.9586 0.616014 17.6716 1.32893C18.3845 2.04184 18.4287 3.01919 18.2357 4.10435C18.0438 5.18296 17.5759 6.58663 16.9835 8.36375L15.5627 12.6261C15.0807 14.0722 14.7061 15.196 14.3607 16.0081C14.0275 16.7915 13.6575 17.4546 13.0956 17.7813C12.212 18.2949 11.1208 18.2949 10.2373 17.7813C9.67534 17.4546 9.30537 16.7915 8.97218 16.0081C8.62675 15.196 8.25219 14.0723 7.77013 12.6261L7.75986 12.5953C7.59097 12.0886 7.53949 11.9512 7.46656 11.8422C7.38493 11.7203 7.28019 11.6156 7.15826 11.5339C7.04932 11.461 6.91189 11.4095 6.40523 11.2406L6.37436 11.2303C4.9282 10.7483 3.80451 10.3737 2.99236 10.0283C2.20895 9.69511 1.54591 9.32515 1.21922 8.76319C0.705574 7.87967 0.705574 6.78846 1.21922 5.90493C1.54591 5.34298 2.20895 4.97301 2.99236 4.63981C3.80452 4.29438 4.92823 3.91982 6.37441 3.43776L10.6368 2.01698C12.4139 1.42459 13.8175 0.956687 14.8961 0.764812ZM14.7346 4.27094C14.9832 4.52235 14.981 4.92773 14.7296 5.17638L11.3149 8.55343C11.0634 8.80208 10.6581 8.79983 10.4094 8.54842C10.1608 8.297 10.163 7.89162 10.4144 7.64297L13.8291 4.26592C14.0805 4.01727 14.4859 4.01952 14.7346 4.27094Z" fill="black"/>
</svg>
